<svg width="28" height="29" viewBox="0 0 28 29" fill="#15803d" xmlns="http://www.w3.org/2000/svg">
  <g id="Vector">
    <path id="Vector_2" d="M7.5408 16.8048C7.66987 17.3643 7.98978 17.8614 8.44557 18.2106C8.90137 18.5598 9.4646 18.7394 10.0384 18.7184H22.9171C23.4904 18.7392 24.0529 18.5595 24.508 18.2102C24.963 17.8609 25.2822 17.3639 25.4103 16.8048L26.5333 9.09194C26.6093 8.69962 26.5969 8.29529 26.4974 7.90828C26.3978 7.52127 26.2134 7.16124 25.9576 6.85425C25.7018 6.54726 25.3809 6.30099 25.0182 6.13328C24.6554 5.96558 24.2601 5.88071 23.8605 5.88466H5.8293M7.5408 16.8048L5.8293 5.88466M7.5408 16.8048C7.5408 16.8048 8.07091 22.6175 13.8746 22.86H24.2693M5.8293 5.88466L5.32614 2.68175C5.24653 2.25227 5.0194 1.8641 4.68391 1.58439C4.34843 1.30469 3.92575 1.15106 3.48896 1.14999H1.80005M12.8055 25.0028C12.8055 26.1887 11.8442 27.15 10.6583 27.15C9.47244 27.15 8.5111 26.1887 8.5111 25.0028C8.5111 23.8169 9.47244 22.8556 10.6583 22.8556C11.8442 22.8556 12.8055 23.8169 12.8055 25.0028ZM26.4164 25.0028C26.4164 26.1887 25.4551 27.15 24.2692 27.15C23.0834 27.15 22.122 26.1887 22.122 25.0028C22.122 23.8169 23.0834 22.8556 24.2692 22.8556C25.4551 22.8556 26.4164 23.8169 26.4164 25.0028Z" stroke="#15803d" stroke-width="2" stroke-linecap="round" stroke-linejoin="round"/>
  </g>
</svg>
